<?xml version="1.0" encoding="UTF-8" standalone="no"?>
<svg
   xmlns:dc="http://purl.org/dc/elements/1.1/"
   xmlns:cc="http://creativecommons.org/ns#"
   xmlns:rdf="http://www.w3.org/1999/02/22-rdf-syntax-ns#"
   xmlns:svg="http://www.w3.org/2000/svg"
   xmlns="http://www.w3.org/2000/svg"
   viewBox="0 0 1593.5468 1259.72"
   height="1259.72"
   width="1593.5468"
   xml:space="preserve"
   id="svg2"
   version="1.1"><metadata
     id="metadata8"><rdf:RDF><cc:Work
         rdf:about=""><dc:format>image/svg+xml</dc:format><dc:type
           rdf:resource="http://purl.org/dc/dcmitype/StillImage" /></cc:Work></rdf:RDF></metadata><defs
     id="defs6"><clipPath
       id="clipPath24"
       clipPathUnits="userSpaceOnUse"><path
         id="path22"
         d="m 2441.07,731.359 c -660.4,0 -918.12,451.001 -885.9,1063.071 16.1,402.69 -209.4,451.01 -434.9,724.84 -161.075,209.39 -289.93,483.21 -354.36,740.93 -257.722,1256.37 805.36,1804.02 1449.65,2657.7 161.08,209.4 306.04,434.9 483.22,644.29 193.29,241.61 434.9,354.36 660.4,531.55 386.58,289.93 289.93,934.22 724.83,1208.04 1127.51,724.83 1884.55,-612.07 2786.56,-950.33 563.75,-209.39 1030.87,-96.64 1562.4,96.65 628.2,225.5 1385.24,241.61 1836.23,-386.58 112.8,-161.07 161.1,-515.43 177.2,-708.72 16.1,-306.04 -209.4,-547.65 -225.5,-853.69 -16.1,-547.65 740.9,-740.93 1079.2,-1046.97 322.1,-273.82 451,-885.9 370.4,-1320.8 -112.7,-579.86 -789.2,-853.68 -902,-1385.22 -64.4,-273.82 193.3,-499.33 -16.1,-740.94 C 10623.6,876.32 10253.1,763.582 10075.9,731.359 9608.81,650.82 8916.2,650.82 8432.97,715.242 7466.54,860.223 6500.1,844.102 5517.56,795.781 4551.12,747.461 3439.72,505.852 2489.39,731.359 h -48.32" /></clipPath></defs><g
     transform="matrix(1.3333333,0,0,-1.3333333,0,1259.72)"
     id="g10"><g
       transform="scale(0.1)"
       id="g12"><path
         id="path14"
         style="fill:#cad3df;fill-opacity:1;fill-rule:nonzero;stroke:none"
         d="M 0,0 H 11951.6 V 9447.94 H 0 Z" /><path
         id="path16"
         style="fill:#e6ecf3;fill-opacity:1;fill-rule:nonzero;stroke:none"
         d="m 2441.07,731.359 c -660.4,0 -918.12,451.001 -885.9,1063.071 16.1,402.69 -209.4,451.01 -434.9,724.84 -161.075,209.39 -289.93,483.21 -354.36,740.93 -257.722,1256.37 805.36,1804.02 1449.65,2657.7 161.08,209.4 306.04,434.9 483.22,644.29 193.29,241.61 434.9,354.36 660.4,531.55 386.58,289.93 289.93,934.22 724.83,1208.04 1127.51,724.83 1884.55,-612.07 2786.56,-950.33 563.75,-209.39 1030.87,-96.64 1562.4,96.65 628.2,225.5 1385.24,241.61 1836.23,-386.58 112.8,-161.07 161.1,-515.43 177.2,-708.72 16.1,-306.04 -209.4,-547.65 -225.5,-853.69 -16.1,-547.65 740.9,-740.93 1079.2,-1046.97 322.1,-273.82 451,-885.9 370.4,-1320.8 -112.7,-579.86 -789.2,-853.68 -902,-1385.22 -64.4,-273.82 193.3,-499.33 -16.1,-740.94 C 10623.6,876.32 10253.1,763.582 10075.9,731.359 9608.81,650.82 8916.2,650.82 8432.97,715.242 7466.54,860.223 6500.1,844.102 5517.56,795.781 4551.12,747.461 3439.72,505.852 2489.39,731.359 h -48.32" /><g
         id="g18"><g
           clip-path="url(#clipPath24)"
           id="g20"><path
             id="path26"
             style="fill:#f8fbfc;fill-opacity:1;fill-rule:nonzero;stroke:none"
             d="m 7657.34,1476.79 v 337.14 c 42.49,-10.4 86.25,-15.73 130.25,-15.73 91.95,0 184.97,23.29 269.9,72.32 258.63,149.34 348.07,483.06 198.74,741.69 l -570.45,988.03 c -100.26,173.67 -283.71,271.03 -471.72,271.03 -25.95,0 -51.97,-1.85 -77.88,-5.61 V 5157.01 H 5667.41 c -19.22,50.03 -66.2,86.57 -121.82,90.51 v 988.8 l 1430.34,1079.36 c 174.42,-53.64 340.22,-76.64 502.46,-76.64 319.09,0 624.39,88.98 954.58,209.06 5.83,2.09 11.61,4.14 17.46,6.2 V 2075.26 l -793.09,-598.47" /><path
             id="path28"
             style="fill:#f8fbfc;fill-opacity:1;fill-rule:nonzero;stroke:none"
             d="m 3833.11,649.98 h -801.72 c -184.9,13.93 -366.19,39.661 -542,81.379 h -48.32 c -59.66,0 -116.06,3.684 -169.23,10.832 V 3765.95 l 1129.2,852.09 c 12.39,-102.14 13.11,-209.67 -11.73,-317.74 -48.49,-211.03 4.66,-398.04 56.07,-578.88 60.58,-213.11 117.79,-414.41 2.86,-634.97 -113.26,-217.36 -42,-390.91 33.46,-574.64 74.07,-180.36 150.66,-366.88 87.39,-629.01 -47.86,-198.27 -8.52,-399.84 55.51,-569.83 H 2302.71 V 934.98 H 3825.5 c 76.87,-112.257 140.32,-181.91 141.23,-182.91 l 5.18,-5.66 955.5,163.121 2.23,8.91 c 0.33,1.289 18.93,76.622 45.44,227.829 v -43.91 c 0,-117.387 36.54,-226.618 98.77,-316.93 h 102.86 v -13.16 c -435.4,-36.821 -891.9,-95.977 -1343.6,-122.29 m 149.33,126.809 c -15.37,17.5 -63.8,74.262 -122.14,158.191 h 517.6 v 377.99 h -722.61 c -67.4,173.66 -105.24,370.91 -58.82,563.23 65.41,271 -16.46,470.39 -88.71,646.3 -76.07,185.22 -141.75,345.18 -34.55,550.93 120.12,230.52 61.41,437.04 -0.74,655.68 -50.43,177.42 -102.58,360.9 -55.71,564.89 27.06,117.75 24.87,234.1 10.23,343.62 L 3660.73,4814 c 14.44,-42.7 28.65,-85.8 42.58,-128.04 87.49,-265.37 170.14,-516.03 265.57,-584.78 201.75,-145.35 589.27,-791.13 612.68,-1133.27 l -148.14,-256.6 v 0 l -57.22,-99.1 c -149.31,-258.63 -59.89,-592.35 198.72,-741.69 h 0.03 c 84.92,-49.03 177.98,-72.31 269.91,-72.32 44,0 87.73,5.33 130.22,15.72 v -492.84 c -34.32,-225.37 -62.82,-353.4 -70.65,-386.908 L 3982.44,776.789 m 623.15,2232.731 c -13.03,97.28 -50,217.26 -107.46,350.11 2.23,42.35 28.18,462.41 185.33,689.71 88.54,128.08 67.64,304.71 47.44,475.53 -19.07,161.21 -38.79,327.91 37.26,444.54 82.97,127.25 65.48,377.83 50.04,598.91 -2.7,38.62 -5.37,76.83 -7.42,113.51 l 182.31,137.57 c 7.96,-17.03 16.28,-35.77 24.96,-56.37 53.82,-127.7 108.89,-296.32 158.66,-451.57 V 3815.17 c -33.67,-16.53 -65.75,-36.56 -95.63,-59.96 3.57,185.31 -12.91,363.41 -25.39,498.3 -9.67,104.5 -18.03,194.75 -8.36,216.19 32.27,71.67 0.26,464.08 -3.5,508.59 -0.61,7.32 -6.81,12.91 -13.92,12.91 -0.43,0 -0.86,-0.02 -1.3,-0.06 -7.75,-0.66 -13.5,-7.47 -12.85,-15.22 10.04,-118.93 30.66,-439.63 5.88,-494.66 -12.16,-27 -6.63,-93.83 6,-230.34 12.97,-140.13 30.28,-327.28 24.68,-519.89 -40.89,-36.91 -76.75,-80.68 -105.69,-130.79 v 0 l -341.04,-590.72 m -131.95,404.83 c -28.35,61.33 -60.78,125.01 -96.94,190.13 -133.61,240.6 -287.24,444.53 -391.36,519.55 -88.01,63.41 -173.04,321.32 -255.28,570.75 -15.3,46.4 -30.46,92.4 -45.61,137.13 l 1099.28,829.51 c 1.86,-30.52 4.08,-62.31 6.37,-95.07 15.13,-216.65 32.28,-462.23 -45.52,-581.56 -81.63,-125.18 -61.31,-297.03 -41.65,-463.22 19.59,-165.63 39.85,-336.9 -42.65,-456.23 -135.61,-196.15 -175.66,-520.05 -186.64,-650.99 m 703.07,1988.45 c -58.07,177.82 -110.72,327.8 -160.7,433.9 l 160.7,121.27 V 5402.8" /><path
             id="path30"
             style="fill:#f8fbfc;fill-opacity:1;fill-rule:nonzero;stroke:none"
             d="m 2002.01,819.441 c -311.75,148.071 -449.62,470.839 -449.51,876.069 0.01,32.46 0.9,65.45 2.67,98.92 0.55,13.77 0.82,27.12 0.81,40.08 -0.1,284.37 -131.49,380.55 -292.19,533.2 h 685.32 c 18.28,0 36,2.34 52.9,6.75 V 819.441 m 0,2196.929 c -16.9,4.41 -34.62,6.76 -52.9,6.76 h -770.84 l 823.74,621.59 v -628.35" /><path
             id="path32"
             style="fill:#f8fbfc;fill-opacity:1;fill-rule:nonzero;stroke:none"
             d="m 9211.65,668.77 c -132.67,0 -265.14,3.722 -392.29,10.972 v 870.178 l 2849.24,2150.07 c 16.8,-100.39 25.3,-201.91 25.3,-300.23 0,-93.61 -7.8,-184.33 -23.4,-268.42 -112.7,-579.86 -789.2,-853.68 -902,-1385.22 -7.5,-31.83 -10.6,-62.99 -10.6,-93.61 -0.1,-153.6 78.1,-293.32 78.2,-431.94 0,-71.51 -20.7,-142.72 -83.7,-215.39 -128.8,-128.86 -499.3,-241.598 -676.5,-273.821 -246.53,-42.507 -556,-62.578 -864.25,-62.589" /><path
             id="path34"
             style="fill:#f8fbfc;fill-opacity:1;fill-rule:nonzero;stroke:none"
             d="m 8450.33,712.973 c -5.81,0.75 -11.61,1.507 -17.36,2.269 -245.44,36.821 -491.03,63.258 -736.73,81.41 l 754.09,569.038 V 712.973" /><path
             id="path36"
             style="fill:#f8fbfc;fill-opacity:1;fill-rule:nonzero;stroke:none"
             d="m 8819.36,2353.64 -0.04,5200.67 c 123.2,23.28 247.85,36.31 371.18,36.31 206.78,0 409.74,-36.62 595.84,-123.09 h -713.06 c -115.42,0 -208.99,-93.56 -208.99,-208.98 v -237.46 c 0,-115.41 93.57,-208.97 208.99,-208.97 h 1296.02 c 0.9,0 1.8,0.01 2.7,0.02 42.2,-158.87 64.4,-339.87 74.4,-459.34 0.5,-10.46 0.8,-20.85 0.8,-31.16 0.1,-291.47 -210.8,-526.95 -226.3,-822.53 -0.2,-5.61 -0.3,-11.19 -0.3,-16.73 -0.1,-135.61 47.7,-249.2 124.6,-348.16 h -236.9 c -115.44,0 -208.99,-93.56 -208.99,-208.99 v -237.46 c 0,-115.4 93.55,-208.97 208.99,-208.97 h 1160.9 c 10.7,-8.8 20.9,-17.68 30.9,-26.66 45,-38.26 86.2,-83.14 123.7,-133.19 L 8819.36,2353.64" /></g></g><path
         id="path38"
         style="fill:#37aa75;fill-opacity:1;fill-rule:nonzero;stroke:none"
         d="m 3409.49,5272.99 c -6.51,0 -13.16,-1.39 -19.76,-4.12 -99.78,-41.46 -66.99,-171.26 -21.61,-350.91 44.81,-177.35 100.56,-398.06 48.64,-623.96 -46.87,-203.99 5.28,-387.47 55.71,-564.89 62.15,-218.64 120.86,-425.16 0.74,-655.68 -107.2,-205.75 -41.52,-365.71 34.55,-550.93 72.25,-175.91 154.12,-375.3 88.71,-646.3 -121.26,-502.38 332.51,-1038.52 385.97,-1099.411 l 921.99,157.383 c 10.79,46.211 60.92,272.188 111.38,685.368 31.99,261.89 -111.97,541.21 -238.98,787.66 -99.84,193.74 -194.16,376.74 -194.16,529.41 0,332.39 -405.7,1014.65 -613.79,1164.57 -95.43,68.75 -178.08,319.41 -265.57,584.78 -90.72,275.16 -193.55,587.03 -293.82,587.03 m 562.42,-4526.58 -5.18,5.66 c -1.32,1.45 -133.94,147.039 -248.45,357.54 -106.11,195.07 -218.14,487.54 -149.19,773.19 63.27,262.13 -13.32,448.65 -87.39,629.01 -75.46,183.73 -146.72,357.28 -33.46,574.64 114.93,220.56 57.72,421.86 -2.86,634.97 -51.41,180.84 -104.56,367.85 -56.07,578.88 50.4,219.29 -4.43,436.35 -48.49,610.75 -47.01,186.08 -84.13,333.05 38.12,383.82 10.03,4.17 20.31,6.28 30.55,6.28 120.64,0 217.76,-294.53 320.57,-606.37 82.24,-249.43 167.27,-507.34 255.28,-570.75 104.12,-75.02 257.75,-278.95 391.36,-519.55 148.8,-267.94 234.14,-511.36 234.14,-667.87 0,-145.84 92.8,-325.89 191.03,-516.51 128.88,-250.06 274.94,-533.49 241.9,-803.97 C 4986.84,1150 4930.21,920.699 4929.64,918.441 l -2.23,-8.91 -955.5,-163.121" /><path
         id="path40"
         style="fill:#37aa75;fill-opacity:1;fill-rule:nonzero;stroke:none"
         d="m 4371.45,931.031 -2.28,0.18 c -7.67,1.238 -12.89,8.48 -11.64,16.148 0.93,5.743 91.03,578.981 -92.98,1020.611 -184.08,441.78 -246.09,590.59 -207.56,970.06 21.02,207.17 -84.78,418.92 -187.09,623.72 -78.82,157.77 -153.27,306.8 -169.67,449.39 -37.02,321.96 -111.59,621.81 -112.33,624.8 -1.89,7.55 2.69,15.19 10.24,17.09 7.51,1.88 15.19,-2.71 17.08,-10.26 0.75,-2.99 75.77,-304.64 112.99,-628.4 15.83,-137.67 89.21,-284.55 166.89,-440.03 104.11,-208.39 211.76,-423.86 189.9,-639.14 -37.79,-372.39 23.53,-519.54 205.55,-956.39 187.15,-449.18 95.72,-1030.15 94.78,-1035.958 -1.12,-6.911 -7.1,-11.821 -13.88,-11.821" /><path
         id="path42"
         style="fill:#37aa75;fill-opacity:1;fill-rule:nonzero;stroke:none"
         d="m 5547.09,1445.38 -267.81,163.44 -1.41,5.58 c -14.12,55.87 -344.86,1373.75 -257.2,1815.02 56.61,285.02 26.74,607.87 6.97,821.5 -12.63,136.51 -18.16,203.34 -6,230.34 24.78,55.03 4.16,375.73 -5.88,494.66 -0.65,7.75 5.1,14.56 12.85,15.22 7.65,0.72 14.57,-5.09 15.22,-12.85 3.76,-44.51 35.77,-436.92 3.5,-508.59 -9.67,-21.44 -1.31,-111.69 8.36,-216.19 19.92,-215.25 50.01,-540.55 -7.4,-829.57 -83.59,-420.83 231.66,-1701.41 255.49,-1797.08 l 232.04,-141.6 c 26.42,52.28 120.7,241.07 136.37,303.77 18.85,75.4 74.48,652.09 37.87,760.94 -36.82,109.46 -76.7,887.34 58.76,1333.26 106.69,351.22 -161.37,653.67 -321.54,834.38 -37.91,42.77 -70.65,79.71 -92.12,109.89 -42.88,60.25 -99.17,236.19 -164.35,439.91 -53.35,166.75 -113.8,355.73 -172.76,495.62 -79.56,188.77 -128.44,221.27 -155.39,215.42 -72,-15.81 -58.62,-207.35 -44.46,-410.13 15.44,-221.08 32.93,-471.66 -50.04,-598.91 -76.05,-116.63 -56.33,-283.33 -37.26,-444.54 20.2,-170.82 41.1,-347.45 -47.44,-475.53 -164.78,-238.34 -185.31,-688.63 -185.5,-693.14 -0.32,-7.77 -6.83,-13.7 -14.65,-13.49 -7.77,0.33 -13.81,6.88 -13.49,14.66 0.78,18.79 21.09,463 190.46,707.97 82.5,119.33 62.24,290.6 42.65,456.23 -19.66,166.19 -39.98,338.04 41.65,463.22 77.8,119.33 60.65,364.91 45.52,581.56 -16.33,233.86 -29.23,418.58 66.53,439.61 110.64,24.21 219.36,-287.23 361.01,-729.96 61.78,-193.1 120.13,-375.49 160.47,-432.17 20.6,-28.95 52.87,-65.37 90.25,-107.54 164.08,-185.12 438.68,-494.94 327.41,-861.24 -133.99,-441.07 -95.26,-1208.37 -59.02,-1316.09 39.82,-118.35 -19.5,-705.8 -37.23,-776.76 -18.96,-75.8 -140.35,-313.25 -145.51,-323.31 l -6.92,-13.51" /><path
         id="path44"
         style="fill:#f8fbfa;fill-opacity:1;fill-rule:evenodd;stroke:none"
         d="m 7399.44,732.66 v 409.18 L 6857.21,732.66 Z" /><path
         id="path46"
         style="fill:#f4b20c;fill-opacity:1;fill-rule:nonzero;stroke:none"
         d="m 8151.1,6941.66 c -298.05,0 -540.54,-242.48 -540.54,-540.54 0,-298.05 242.49,-540.53 540.54,-540.53 298.05,0 540.54,242.48 540.54,540.53 0,298.06 -242.49,540.54 -540.54,540.54 z m 0,-1100.27 c -308.63,0 -559.73,251.1 -559.73,559.73 0,308.64 251.1,559.73 559.73,559.73 308.63,0 559.73,-251.09 559.73,-559.73 0,-308.63 -251.1,-559.73 -559.73,-559.73" /><path
         id="path48"
         style="fill:#f4b20c;fill-opacity:1;fill-rule:nonzero;stroke:none"
         d="m 8136.81,6379.15 v 392.99 c 0,5.3 4.7,9.59 10,9.59 5.3,0 10,-4.29 10,-9.59 v -349.05 l 179.33,165.82 c 3.89,3.6 10.13,3.37 13.74,-0.52 3.59,-3.89 2.7,-9.96 -1.18,-13.56 l -211.89,-195.68" /><path
         id="path50"
         style="fill:#f8fbfa;fill-opacity:1;fill-rule:nonzero;stroke:none"
         d="m 2688.54,8001.1 c -356.21,-154.58 -658.64,-362.93 -819.95,-719.13 -47.04,-100.81 -87.36,-221.78 -33.59,-322.6 60.48,-100.81 208.34,-127.69 315.87,-147.86 100.81,-20.16 248.67,-47.05 356.21,-33.6 134.41,20.16 288.99,127.7 403.24,194.9 235.24,127.7 416.69,241.95 564.55,463.74 154.58,228.51 161.31,443.57 -120.97,564.55 -215.07,100.81 -499.02,49.63 -665.36,0" /><path
         id="path52"
         style="fill:#f8fbfa;fill-opacity:1;fill-rule:nonzero;stroke:none"
         d="m 11022.4,5649.64 c 16.5,180.82 -1.3,351.61 -111.3,497.64 -30.8,41.9 -71.4,85.55 -124.8,86.09 -54.9,-2.23 -99.1,-56.88 -131.5,-96.49 -30.9,-36.85 -75,-91.5 -93.6,-138.64 -21.9,-59.67 -12.4,-147.2 -10.4,-209.15 -0.3,-125.14 5.9,-225.21 63.8,-335.6 59.1,-114.64 145.8,-165.6 258.7,-76.88 89.6,65.66 132.2,193.65 149.1,273.03" /><path
         id="path54"
         style="fill:#f8fbfa;fill-opacity:1;fill-rule:nonzero;stroke:none"
         d="m 7546.17,7917.8 c -179.57,26.78 -351.11,18.93 -503.22,-82.5 -43.6,-28.36 -89.53,-66.39 -93.13,-119.68 -0.95,-54.97 51.07,-102.21 88.75,-136.82 35.01,-32.93 87.03,-80.17 133.02,-101.44 58.31,-25.25 146.26,-20.82 208.21,-22.41 124.91,-7.53 225.18,-7.09 338.71,44.34 117.85,52.42 173.72,136.1 91.65,253.92 -60.39,93.2 -185.71,143.14 -263.99,164.59" /><path
         id="path56"
         style="fill:#8796a9;fill-opacity:1;fill-rule:evenodd;stroke:none"
         d="m 7685.78,3600.24 c -143.66,248.85 -458.07,341 -712.08,214.61 H 5536.21 c -308.62,0 -561.13,-252.53 -561.13,-561.16 V 1102.36 c 0,-117.387 36.54,-226.618 98.77,-316.93 h 2484.73 c 62.23,90.34 98.76,199.57 98.76,316.93 v 711.57 c 131.32,-32.12 274.58,-15.9 400.15,56.59 258.63,149.34 348.07,483.06 198.74,741.69 l -570.45,988.03" /><path
         id="path58"
         style="fill:#6c7c91;fill-opacity:1;fill-rule:evenodd;stroke:none"
         d="m 7685.78,3600.23 c -149.29,258.65 -483.06,348.06 -741.69,198.76 v -0.02 c -152.97,-88.3 -246.72,-241.14 -266.92,-404.79 21.44,17.27 44.47,33.1 69.03,47.3 258.61,149.29 592.38,59.86 741.69,-198.76 l 570.44,-988.04 c 61.01,-105.65 82.13,-223.82 68.19,-336.85 204.42,164.71 264.85,460.3 129.71,694.38 l -570.45,988.02" /><path
         id="path60"
         style="fill:#6c7c91;fill-opacity:1;fill-rule:evenodd;stroke:none"
         d="M 6973.7,3814.85 H 5837.32 c -21.04,-67.08 -32.39,-138.33 -32.39,-212.11 0,-399.67 331.76,-723.68 741.04,-723.68 409.23,0 741,324.01 741,723.68 0,94.73 -18.68,185.21 -52.6,268.15 -87.95,3.26 -177.54,-14.68 -260.67,-56.04" /><path
         id="path62"
         style="fill:#8796a9;fill-opacity:1;fill-rule:evenodd;stroke:none"
         d="m 5688.35,3798.96 -0.02,0.03 c -258.62,149.3 -592.37,59.89 -741.7,-198.75 L 4376.2,2612.21 c -149.31,-258.63 -59.89,-592.35 198.72,-741.69 h 0.03 c 258.62,-149.31 592.37,-59.87 741.67,198.75 l 570.44,988.04 c 149.33,258.61 59.89,592.35 -198.71,741.65" /><path
         id="path64"
         style="fill:#9aaabb;fill-opacity:1;fill-rule:evenodd;stroke:none"
         d="m 4946.63,3600.24 -513.21,-888.93 c 247.74,-103.59 542.05,-8.95 679.67,229.42 l 513.25,888.97 c -247.76,103.55 -542.07,8.94 -679.71,-229.46" /><path
         id="path66"
         style="fill:#cad3df;fill-opacity:1;fill-rule:evenodd;stroke:none"
         d="m 5996.81,3530.86 c -77.04,77.05 -203.14,77.05 -280.18,0 -77.06,-77.07 -77.06,-203.14 0,-280.21 l 261.51,-261.51 c 77.05,-77.05 203.14,-77.05 280.18,0 h 0.02 c 77.04,77.07 77.04,203.14 0,280.19 l -261.53,261.53" /><path
         id="path68"
         style="fill:#cad3df;fill-opacity:1;fill-rule:evenodd;stroke:none"
         d="m 6635.63,3530.86 -261.5,-261.53 c -77.06,-77.05 -77.06,-203.12 0,-280.19 77.02,-77.05 203.13,-77.05 280.17,0 l 261.51,261.51 c 77.08,77.08 77.08,203.14 0,280.21 -77.05,77.05 -203.14,77.05 -280.18,0" /><path
         id="path70"
         style="fill:#942836;fill-opacity:1;fill-rule:evenodd;stroke:none"
         d="M 4664.51,1337.81 6141.32,1082.1 V 2870.38 L 4539.1,3173.05 4664.51,1337.81" /><path
         id="path72"
         style="fill:#811e2b;fill-opacity:1;fill-rule:evenodd;stroke:none"
         d="M 4554.6,2946.05 4664.51,1337.81 6112.29,1087.15 C 5976.74,1923.52 5373.68,2619.89 4554.6,2946.05" /><path
         id="path74"
         style="fill:#942836;fill-opacity:1;fill-rule:evenodd;stroke:none"
         d="m 6245.51,1082.1 1476.81,255.71 125.45,1835.24 -1602.26,-302.67 V 1082.1" /><path
         id="path76"
         style="fill:#cac9c9;fill-opacity:1;fill-rule:evenodd;stroke:none"
         d="m 4763.77,3267 -154.6,-107.19 1465.11,-276.74 119.15,1.79 C 5943.71,3147.1 5198.24,3296.2 4763.77,3267" /><path
         id="path78"
         style="fill:#cac9c9;fill-opacity:1;fill-rule:evenodd;stroke:none"
         d="m 6193.43,2884.86 119.14,-1.79 1465.1,276.74 -154.61,107.19 c -434.43,29.2 -1179.93,-119.9 -1429.63,-382.14" /><path
         id="path80"
         style="fill:#a73f50;fill-opacity:1;fill-rule:evenodd;stroke:none"
         d="m 6074.28,1082.1 h 238.29 V 2884.86 H 6074.28 V 1082.1" /><path
         id="path82"
         style="fill:#811e2b;fill-opacity:1;fill-rule:evenodd;stroke:none"
         d="m 6290.06,1087.15 1447.79,250.66 109.92,1608.24 C 7028.71,2619.89 6425.62,1923.52 6290.06,1087.15" /><path
         id="path84"
         style="fill:#fabd53;fill-opacity:1;fill-rule:nonzero;stroke:none"
         d="M 5524.71,5157.01 V 3837.76 c 0,-346.06 280.58,-626.66 626.68,-626.66 h 358.11 c 346.1,0 626.68,280.6 626.68,626.66 V 5157.01 H 5524.71" /><path
         id="path86"
         style="fill:#f68924;fill-opacity:1;fill-rule:nonzero;stroke:none"
         d="m 6305.57,3211.1 h -154.18 c -195.99,0 -370.98,89.99 -485.9,230.89 -57.28,70.23 -99.63,153.11 -122.23,243.81 -12.12,48.66 -18.55,99.56 -18.55,151.96 V 4084 c 3.67,0.89 7.28,1.94 10.81,3.15 v -21.52 c 0,-74.76 59.08,-139.14 143.38,-167.26 v -60.61 c 0,-346.06 280.57,-626.66 626.67,-626.66 m -626.67,732.75 c -54.13,24.78 -90.45,70.09 -90.45,121.78 v 56.62 c 19.84,22.18 31.91,51.46 31.91,83.54 v 154.69 0 c 0,10.5 -1.29,20.69 -3.72,30.44 15.14,10.69 28.12,24.29 38.1,39.96 7.57,4.87 15.64,9.28 24.16,13.18 v -500.21 m -3.33,544.53 c 0.75,5.86 1.14,11.82 1.14,17.87 v 600.51 c 0,17.68 -3.3,34.62 -9.3,50.25 h 11.49 v -667.49 c -1.11,-0.37 -2.22,-0.75 -3.33,-1.14" /><path
         id="path88"
         style="fill:#942836;fill-opacity:1;fill-rule:evenodd;stroke:none"
         d="m 5535.6,5247.87 h -0.02 c -77.63,0 -141.11,-63.48 -141.11,-141.11 v -600.51 c 0,-77.61 63.48,-141.09 141.11,-141.09 h 0.02 c 77.6,0 141.11,63.48 141.11,141.09 v 600.51 c 0,77.63 -63.51,141.11 -141.11,141.11" /><path
         id="path90"
         style="fill:#942836;fill-opacity:1;fill-rule:evenodd;stroke:none"
         d="m 7124.36,5247.87 c -77.6,0 -141.09,-63.48 -141.09,-141.11 v -600.51 c 0,-77.61 63.49,-141.09 141.09,-141.09 77.64,0 141.13,63.48 141.13,141.09 v 600.51 c 0,77.63 -63.49,141.11 -141.13,141.11" /><path
         id="path92"
         style="fill:#942836;fill-opacity:1;fill-rule:evenodd;stroke:none"
         d="m 6324.75,5836.34 h -702.03 c -266.49,0 -484.51,-218.03 -484.51,-484.51 0,-266.48 218.02,-484.51 484.51,-484.51 h 702.03 c 266.49,0 484.52,218.03 484.52,484.51 0,266.48 -218.03,484.51 -484.52,484.51" /><path
         id="path94"
         style="fill:#942836;fill-opacity:1;fill-rule:evenodd;stroke:none"
         d="m 7154.03,5698.25 h -312.05 c -202.74,0 -368.62,-165.88 -368.62,-368.63 0,-202.74 165.88,-368.64 368.62,-368.64 h 312.05 c 202.76,0 368.64,165.9 368.64,368.64 0,202.75 -165.88,368.63 -368.64,368.63" /><path
         id="path96"
         style="fill:#942836;fill-opacity:1;fill-rule:evenodd;stroke:none"
         d="m 6669.05,5995.26 h -0.04 c -48.5,0 -88.16,-39.67 -88.16,-88.16 v -249.27 c 0,-48.52 39.66,-88.19 88.16,-88.19 h 0.04 c 48.49,0 88.17,39.67 88.17,88.19 v 249.27 c 0,48.49 -39.68,88.16 -88.17,88.16" /><path
         id="path98"
         style="fill:#942836;fill-opacity:1;fill-rule:evenodd;stroke:none"
         d="m 6909.5,5936.43 c -40.81,26.22 -95.63,14.24 -121.85,-26.57 L 6653.01,5700.1 c -26.22,-40.83 -14.26,-95.63 26.57,-121.85 40.82,-26.2 95.64,-14.24 121.84,26.56 l 134.65,209.79 c 26.21,40.81 14.25,95.63 -26.57,121.83" /><path
         id="path100"
         style="fill:#fabd53;fill-opacity:1;fill-rule:nonzero;stroke:none"
         d="m 7303.94,4205.79 c 0,-69.19 -56.1,-125.33 -125.34,-125.33 -69.2,0 -125.32,56.14 -125.32,125.33 v 154.69 c 0,69.22 56.12,125.32 125.32,125.32 69.24,0 125.34,-56.1 125.34,-125.32 v -154.69" /><path
         id="path102"
         style="fill:#fabd53;fill-opacity:1;fill-rule:nonzero;stroke:none"
         d="m 5620.36,4205.79 c 0,-69.19 -56.11,-125.33 -125.33,-125.33 -69.22,0 -125.34,56.14 -125.34,125.33 v 154.69 c 0,69.22 56.12,125.32 125.34,125.32 69.22,0 125.33,-56.1 125.33,-125.32 v -154.69" /><path
         id="path104"
         style="fill:#f68924;fill-opacity:1;fill-rule:nonzero;stroke:none"
         d="m 5495.03,4080.46 c -69.22,0 -125.34,56.14 -125.34,125.33 v 154.69 c 0,69.22 56.12,125.32 125.34,125.32 39.05,0 73.93,-17.85 96.91,-45.84 -35.18,-31.79 -56.42,-72.89 -56.42,-117.71 v -235.1 c -3.53,-1.21 -7.14,-2.26 -10.81,-3.15 -9.52,-2.32 -19.45,-3.54 -29.68,-3.54 m 93.42,41.79 v 200 c 0,26.89 9.83,52.06 26.88,73.5 3.27,-11.19 5.03,-23.02 5.03,-35.27 v -154.69 c 0,-32.08 -12.07,-61.36 -31.91,-83.54" /><path
         id="path106"
         style="fill:#743419;fill-opacity:1;fill-rule:nonzero;stroke:none"
         d="m 6133.12,4349.37 c -10.73,0 -21.6,2.79 -31.41,8.74 -94.58,57.23 -221.69,57.23 -316.29,0 -27.87,-16.87 -64.5,-8.61 -81.86,18.37 -17.38,27.04 -8.87,62.6 18.95,79.47 134.29,81.28 307.83,81.28 442.12,0 27.85,-16.87 36.34,-52.43 18.98,-79.47 -11.28,-17.5 -30.67,-27.11 -50.49,-27.11" /><path
         id="path108"
         style="fill:#44393f;fill-opacity:1;fill-rule:nonzero;stroke:none"
         d="m 5943.58,4287.72 v 0 c -56.28,0 -101.88,-44.26 -101.88,-98.83 v -20.14 c 0,-54.56 45.6,-98.81 101.88,-98.81 56.24,0 101.86,44.25 101.86,98.81 v 20.14 c 0,54.57 -45.62,98.83 -101.86,98.83" /><path
         id="path110"
         style="fill:#e4965c;fill-opacity:1;fill-rule:nonzero;stroke:none"
         d="M 6061.73,4039.05 H 5824 c -17.57,0 -31.83,13.84 -31.83,30.89 0,17.05 14.26,30.85 31.83,30.85 h 237.73 c 17.57,0 31.82,-13.8 31.82,-30.85 0,-17.05 -14.25,-30.89 -31.82,-30.89" /><path
         id="path112"
         style="fill:#743419;fill-opacity:1;fill-rule:nonzero;stroke:none"
         d="m 6914.16,4349.37 c -10.74,0 -21.6,2.79 -31.4,8.74 -94.58,57.21 -221.69,57.21 -316.28,0 -27.85,-16.87 -64.5,-8.61 -81.89,18.37 -17.39,27.04 -8.87,62.6 18.97,79.47 134.31,81.28 307.84,81.28 442.14,0 27.81,-16.87 36.31,-52.43 18.95,-79.47 -11.27,-17.5 -30.64,-27.11 -50.49,-27.11" /><path
         id="path114"
         style="fill:#44393f;fill-opacity:1;fill-rule:nonzero;stroke:none"
         d="m 6724.63,4287.72 c 56.26,0 101.9,-44.26 101.9,-98.83 v -20.14 c 0,-54.56 -45.64,-98.81 -101.9,-98.81 -56.26,0 -101.9,44.25 -101.9,98.81 v 20.14 c 0,54.57 45.64,98.83 101.9,98.83" /><path
         id="path116"
         style="fill:#e4965c;fill-opacity:1;fill-rule:nonzero;stroke:none"
         d="m 6606.47,4039.05 h 237.72 c 17.58,0 31.84,13.84 31.84,30.89 0,17.05 -14.26,30.85 -31.84,30.85 h -237.72 c -17.58,0 -31.84,-13.8 -31.84,-30.85 0,-17.05 14.26,-30.89 31.84,-30.89" /><path
         id="path118"
         style="fill:#da2256;fill-opacity:1;fill-rule:nonzero;stroke:none"
         d="m 6143.49,3609.72 h 345.26 c 0,0 -7.26,-156.88 -171.85,-162.49 -164.58,-5.56 -173.41,162.49 -173.41,162.49" /><path
         id="path120"
         style="fill:#f2577b;fill-opacity:1;fill-rule:nonzero;stroke:none"
         d="m 6316.9,3447.23 c 48.7,1.67 83.53,16.59 108.58,36.75 -19.35,28.87 -60.62,48.87 -108.58,48.87 -49.81,0 -92.56,-21.54 -110.83,-52.21 25.35,-20.77 60.89,-35.09 110.83,-33.41" /><path
         id="path122"
         style="fill:#faf8d6;fill-opacity:1;fill-rule:nonzero;stroke:none"
         d="m 6481.21,3570.41 c 6.71,22.62 7.54,39.31 7.54,39.31 h -345.26 c 0,0 0.88,-16.66 7.23,-39.31 h 330.49" /><path
         id="path124"
         style="fill:#f68924;fill-opacity:1;fill-rule:nonzero;stroke:none"
         d="m 6317.87,3673.41 c -15.57,0 -28.2,12.62 -28.2,28.17 v 469.9 h 56.37 v -469.9 c 0,-15.55 -12.62,-28.17 -28.17,-28.17 m 28.17,537.92 h -56.37 v 40.53 c 0,15.56 12.63,28.2 28.2,28.2 15.55,0 28.17,-12.64 28.17,-28.2 v -40.53" /><path
         id="path126"
         style="fill:#8b6d96;fill-opacity:1;fill-rule:nonzero;stroke:none"
         d="m 6413.41,4171.48 h -190.53 c -14.36,0 -26.02,8.94 -26.02,19.97 0,10.95 11.66,19.88 26.02,19.88 h 190.53 c 14.36,0 26.02,-8.93 26.02,-19.88 0,-11.03 -11.66,-19.97 -26.02,-19.97" /><path
         id="path128"
         style="fill:#8b6d96;fill-opacity:1;fill-rule:nonzero;stroke:none"
         d="m 5773.77,4464.09 c -102.17,0 -185.32,-63.62 -185.32,-141.84 v -256.62 c 0,-78.21 83.15,-141.8 185.32,-141.8 h 230.06 c 102.19,0 185.3,63.59 185.3,141.8 v 256.62 c 0,78.22 -83.11,141.84 -185.3,141.84 h -230.06 m 230.06,-580.8 h -230.06 c -131.37,0 -238.25,81.79 -238.25,182.34 v 256.62 c 0,100.55 106.88,182.35 238.25,182.35 h 230.06 c 131.36,0 238.25,-81.8 238.25,-182.35 v -256.62 c 0,-100.55 -106.89,-182.34 -238.25,-182.34" /><path
         id="path130"
         style="fill:#8b6d96;fill-opacity:1;fill-rule:nonzero;stroke:none"
         d="m 6629.73,4464.09 c -102.17,0 -185.29,-63.62 -185.29,-141.84 v -256.62 c 0,-78.21 83.12,-141.8 185.29,-141.8 h 230.06 c 102.19,0 185.33,63.59 185.33,141.8 v 256.62 c 0,78.22 -83.14,141.84 -185.33,141.84 h -230.06 m 230.06,-580.8 h -230.06 c -131.38,0 -238.26,81.79 -238.26,182.34 v 256.62 c 0,100.55 106.88,182.35 238.26,182.35 h 230.06 c 131.4,0 238.25,-81.8 238.25,-182.35 v -256.62 c 0,-100.55 -106.85,-182.34 -238.25,-182.34" /><path
         id="path132"
         style="fill:#f7d7a9;fill-opacity:1;fill-rule:nonzero;stroke:none"
         d="m 6848.06,4152.49 c -8.17,0 -15.75,2.43 -22.02,6.59 0.32,3.18 0.49,6.41 0.49,9.67 v 20.14 c 0,10.23 -1.61,20.1 -4.58,29.38 6.9,6.05 16.06,9.74 26.11,9.74 21.48,0 38.88,-16.92 38.88,-37.78 0,-20.86 -17.4,-37.74 -38.88,-37.74" /><path
         id="path134"
         style="fill:#a1999f;fill-opacity:1;fill-rule:nonzero;stroke:none"
         d="m 6826.04,4159.08 c -10.23,6.8 -16.94,18.21 -16.94,31.15 0,11.12 4.95,21.13 12.85,28.04 2.97,-9.28 4.58,-19.15 4.58,-29.38 v -20.14 c 0,-3.26 -0.17,-6.49 -0.49,-9.67" /><path
         id="path136"
         style="fill:#f7d7a9;fill-opacity:1;fill-rule:nonzero;stroke:none"
         d="m 6663.7,3941.19 c -10.48,0 -20.97,3.88 -29,11.64 -15.97,15.53 -15.97,40.69 0.03,56.2 l 30.93,30.02 h 115.86 l -88.85,-86.22 c -8,-7.76 -18.51,-11.64 -28.97,-11.64 m 164.54,159.6 h -29.65 c 7.7,7.88 14.08,16.99 18.79,26.99 7.25,-7.62 10.87,-17.3 10.86,-26.99" /><path
         id="path138"
         style="fill:#a1999f;fill-opacity:1;fill-rule:nonzero;stroke:none"
         d="m 6798.59,4100.79 h -69.28 l 28.99,28.14 c 8,7.75 18.48,11.62 28.97,11.62 10.48,0 20.97,-3.87 28.96,-11.62 0.39,-0.38 0.78,-0.77 1.15,-1.15 -4.71,-10 -11.09,-19.11 -18.79,-26.99" /><path
         id="path140"
         style="fill:#edc5af;fill-opacity:1;fill-rule:nonzero;stroke:none"
         d="m 6781.52,4039.05 h -115.86 l 63.65,61.74 h 98.93 c -0.01,-10.16 -4.01,-20.32 -12.01,-28.06 l -34.71,-33.68" /><path
         id="path142"
         style="fill:#f7d7a9;fill-opacity:1;fill-rule:nonzero;stroke:none"
         d="m 6168.88,4168.72 c -21.48,0 -38.91,16.9 -38.91,37.74 0,20.85 17.43,37.76 38.91,37.76 7.42,0 14.35,-2.01 20.25,-5.51 v -64.48 c -5.9,-3.5 -12.83,-5.51 -20.25,-5.51" /><path
         id="path144"
         style="fill:#c5b0c9;fill-opacity:1;fill-rule:nonzero;stroke:none"
         d="m 6189.13,4174.23 v 64.48 c 11.19,-6.63 18.67,-18.59 18.67,-32.25 0,-13.65 -7.48,-25.61 -18.67,-32.23" /><path
         id="path146"
         style="fill:#f7d7a9;fill-opacity:1;fill-rule:nonzero;stroke:none"
         d="m 5984.54,3957.4 c -10.49,0 -20.96,3.89 -28.99,11.63 -15.97,15.56 -15.97,40.73 0.02,56.25 l 14.19,13.77 h 91.97 c 17.57,0 31.82,13.84 31.82,30.89 0,17.05 -14.25,30.85 -31.82,30.85 h -28.31 l 45.73,44.36 c 8,7.76 18.49,11.64 28.98,11.64 10.48,0 20.97,-3.88 28.98,-11.64 15.98,-15.52 15.98,-40.7 -0.03,-56.2 l -123.59,-119.92 c -7.97,-7.74 -18.47,-11.63 -28.95,-11.63" /><path
         id="path148"
         style="fill:#edc5af;fill-opacity:1;fill-rule:nonzero;stroke:none"
         d="m 6061.73,4039.05 h -91.97 l 63.66,61.74 h 28.31 c 17.57,0 31.82,-13.8 31.82,-30.85 0,-17.05 -14.25,-30.89 -31.82,-30.89" /><path
         id="path150"
         style="fill:#d36380;fill-opacity:1;fill-rule:evenodd;stroke:none"
         d="m 6425.48,5360.68 c 0,-112.49 -91.19,-203.67 -203.68,-203.67 h -548.89 c -112.49,0 -203.67,91.18 -203.67,203.67 0,112.48 91.18,203.67 203.67,203.67 h 548.89 c 112.49,0 203.68,-91.19 203.68,-203.67" /><path
         id="path152"
         style="fill:#d36380;fill-opacity:1;fill-rule:evenodd;stroke:none"
         d="m 7265.49,5243.31 c 0,-47.66 -38.64,-86.3 -86.31,-86.3 h -244.86 c -47.65,0 -86.31,38.64 -86.31,86.3 0,47.66 38.66,86.3 86.31,86.3 h 244.86 c 47.67,0 86.31,-38.64 86.31,-86.3" /><path
         id="path154"
         style="fill:#f28e40;fill-opacity:1;fill-rule:evenodd;stroke:none"
         d="m 8502.78,1957.72 c 0,-361.76 -293.26,-655.02 -655.01,-655.02 -361.76,0 -655.02,293.26 -655.02,655.02 0,361.74 293.26,655.01 655.02,655.01 361.75,0 655.01,-293.27 655.01,-655.01" /><path
         id="path156"
         style="fill:#f28e40;fill-opacity:1;fill-rule:evenodd;stroke:none"
         d="m 8020.1,2497.73 c 32.64,-51.39 17.44,-119.53 -33.94,-152.17 -51.4,-32.65 -119.53,-17.45 -152.17,33.94 l -158.57,249.61 c -32.64,51.4 -17.45,119.52 33.94,152.17 51.39,32.65 119.53,17.46 152.18,-33.95 l 158.56,-249.6" /><path
         id="path158"
         style="fill:#f09b5a;fill-opacity:1;fill-rule:evenodd;stroke:none"
         d="m 8328.55,2165.43 c 0,-119.47 -144.22,-216.33 -322.13,-216.33 -177.91,0 -322.13,96.86 -322.13,216.33 0,119.47 144.22,216.33 322.13,216.33 177.91,0 322.13,-96.86 322.13,-216.33" /><path
         id="path160"
         style="fill:#f28e40;fill-opacity:1;fill-rule:evenodd;stroke:none"
         d="m 3830.64,1953.72 c 0,-361.75 293.26,-655.02 655.01,-655.02 361.76,0 655.02,293.27 655.02,655.02 0,361.76 -293.26,655.02 -655.02,655.02 -361.75,0 -655.01,-293.26 -655.01,-655.02" /><path
         id="path162"
         style="fill:#f28e40;fill-opacity:1;fill-rule:evenodd;stroke:none"
         d="m 4313.32,2493.74 c -32.65,-51.4 -17.45,-119.53 33.94,-152.17 51.4,-32.65 119.53,-17.45 152.17,33.95 L 4658,2625.13 c 32.64,51.39 17.45,119.52 -33.95,152.17 -51.39,32.64 -119.52,17.45 -152.17,-33.95 l -158.56,-249.61" /><path
         id="path164"
         style="fill:#f09b5a;fill-opacity:1;fill-rule:evenodd;stroke:none"
         d="m 4004.86,2161.45 c 0,-119.48 144.23,-216.33 322.14,-216.33 177.9,0 322.13,96.85 322.13,216.33 0,119.47 -144.23,216.32 -322.13,216.32 -177.91,0 -322.14,-96.85 -322.14,-216.32" /><path
         id="path166"
         style="fill:#bec9d6;fill-opacity:1;fill-rule:nonzero;stroke:none"
         d="M 9542.86,7648 H 8246.88 c -115.41,0 -208.97,93.57 -208.97,208.98 v 237.47 c 0,115.41 93.56,208.97 208.97,208.97 h 1295.98 c 115.42,0 208.98,-93.56 208.98,-208.97 v -237.47 c 0,-115.41 -93.56,-208.98 -208.98,-208.98" /><path
         id="path168"
         style="fill:#bcc6d4;fill-opacity:1;fill-rule:nonzero;stroke:none"
         d="m 10372,6812.14 c -26.1,98.15 -59.7,187.87 -102.8,249.38 -136.8,190.6 -301.82,321.89 -482.86,406.01 h 582.96 c 115.4,0 208.9,-93.56 208.9,-208.98 v -237.46 c 0,-114.49 -92.1,-207.48 -206.2,-208.95" /><path
         id="path170"
         style="fill:#eaeef0;fill-opacity:1;fill-rule:nonzero;stroke:none"
         d="M 10369.3,6812.12 H 9073.28 c -115.42,0 -208.99,93.56 -208.99,208.97 v 237.46 c 0,115.42 93.57,208.98 208.99,208.98 h 713.06 c 181.04,-84.12 346.06,-215.41 482.86,-406.01 43.1,-61.51 76.7,-151.23 102.8,-249.38 -0.9,-0.01 -1.8,-0.02 -2.7,-0.02" /><path
         id="path172"
         style="fill:#bec9d6;fill-opacity:1;fill-rule:nonzero;stroke:none"
         d="m 5226.01,8446.47 h -100.38 c -123.53,42.68 -250.45,67.55 -381.97,67.55 -120.04,0 -244.01,-20.75 -372.6,-67.55 h -441.05 c -115.4,0 -208.97,93.55 -208.97,208.97 v 237.47 c 0,115.41 93.57,208.97 208.97,208.97 h 1296 c 115.41,0 208.97,-93.56 208.97,-208.97 v -237.47 c 0,-115.42 -93.56,-208.97 -208.97,-208.97" /><path
         id="path174"
         style="fill:#dae1eb;fill-opacity:1;fill-rule:nonzero;stroke:none"
         d="m 5125.63,8446.47 h -754.57 c 128.59,46.8 252.56,67.55 372.6,67.55 131.52,0 258.44,-24.87 381.97,-67.55" /><path
         id="path176"
         style="fill:#bec9d6;fill-opacity:1;fill-rule:nonzero;stroke:none"
         d="m 749.027,3900.3 h -95.902 c -115.41,0 -208.969,93.56 -208.969,208.97 v 237.47 c 0,115.41 93.559,208.97 208.969,208.97 H 1019.34 C 888.867,4357.33 791.059,4143.35 749.027,3900.3" /><path
         id="path178"
         style="fill:#dae1eb;fill-opacity:1;fill-rule:nonzero;stroke:none"
         d="M 1949.11,3900.3 H 749.027 c 42.032,243.05 139.84,457.03 270.313,655.41 h 929.77 c 115.42,0 208.98,-93.56 208.98,-208.97 v -237.47 c 0,-115.41 -93.56,-208.97 -208.98,-208.97" /><path
         id="path180"
         style="fill:#bec9d6;fill-opacity:1;fill-rule:nonzero;stroke:none"
         d="M 1263.79,2367.71 H 653.125 c -115.41,0 -208.969,93.56 -208.969,208.97 v 237.47 c 0,115.41 93.559,208.98 208.969,208.98 h 188.438 c 24.914,-64.42 53.175,-128.3 84.308,-190.47 v 0 c 56.379,-112.58 122.149,-219.47 194.399,-313.39 48.65,-59.08 97.29,-107.65 143.52,-151.56" /><path
         id="path182"
         style="fill:#dae1eb;fill-opacity:1;fill-rule:nonzero;stroke:none"
         d="m 2002.01,2374.46 v 641.91 c 89.8,-23.42 156.08,-105.08 156.08,-202.22 v -237.47 c 0,-97.14 -66.28,-178.8 -156.08,-202.22 m -1076.139,458.2 c -31.133,62.17 -59.394,126.05 -84.308,190.47 H 1178.27 L 925.871,2832.66" /><path
         id="path184"
         style="fill:#ebf0f3;fill-opacity:1;fill-rule:nonzero;stroke:none"
         d="m 1949.11,2367.71 h -685.32 c -46.23,43.91 -94.87,92.48 -143.52,151.56 -72.25,93.92 -138.02,200.81 -194.399,313.39 l 252.399,190.47 h 770.84 c 18.28,0 36,-2.35 52.9,-6.76 v -641.91 c -16.9,-4.41 -34.62,-6.75 -52.9,-6.75" /><path
         id="path186"
         style="fill:#bec9d6;fill-opacity:1;fill-rule:nonzero;stroke:none"
         d="M 1949.11,8186.31 H 653.125 c -115.41,0 -208.969,93.56 -208.969,208.97 v 237.47 c 0,115.42 93.559,208.98 208.969,208.98 H 1949.11 c 115.42,0 208.98,-93.56 208.98,-208.98 v -237.47 c 0,-115.41 -93.56,-208.97 -208.98,-208.97" /><path
         id="path188"
         style="fill:#bcc6d4;fill-opacity:1;fill-rule:nonzero;stroke:none"
         d="m 11404.3,4478.8 h -135.1 c -256.7,212.72 -706.6,375.6 -924,655.42 h 1059.1 c 115.4,0 208.9,-93.56 208.9,-208.99 v -237.46 c 0,-115.4 -93.5,-208.97 -208.9,-208.97" /><path
         id="path190"
         style="fill:#eaeef0;fill-opacity:1;fill-rule:nonzero;stroke:none"
         d="m 11269.2,4478.8 h -1160.9 c -115.44,0 -208.99,93.57 -208.99,208.97 v 237.46 c 0,115.43 93.55,208.99 208.99,208.99 h 236.9 c 217.4,-279.82 667.3,-442.7 924,-655.42" /><path
         id="path192"
         style="fill:#bec9d6;fill-opacity:1;fill-rule:nonzero;stroke:none"
         d="m 1969.06,5622.63 h -167.3 c -115.41,0 -208.97,93.56 -208.97,208.97 v 237.47 c 0,115.41 93.56,208.97 208.97,208.97 h 676.91 c -88.28,-121.32 -173.19,-243.25 -263.11,-360.14 -77.15,-102.23 -160.32,-200.08 -246.5,-295.27" /><path
         id="path194"
         style="fill:#dae1eb;fill-opacity:1;fill-rule:nonzero;stroke:none"
         d="M 3097.75,5622.63 H 1969.06 c 86.18,95.19 169.35,193.04 246.5,295.27 89.92,116.89 174.83,238.82 263.11,360.14 h 619.08 c 115.41,0 208.97,-93.56 208.97,-208.97 V 5831.6 c 0,-115.41 -93.56,-208.97 -208.97,-208.97" /><path
         id="path196"
         style="fill:#d9e4f0;fill-opacity:1;fill-rule:evenodd;stroke:none"
         d="M 10602.1,942.73 H 2030.3 c -84.79,0 -154.15,-69.378 -154.15,-154.16 v -0.019 c 0,-84.789 69.36,-154.129 154.15,-154.129 h 8571.8 c 84.8,0 154.2,69.34 154.2,154.129 v 0.019 c 0,84.782 -69.4,154.16 -154.2,154.16" /><path
         id="path198"
         style="fill:#e9f1fa;fill-opacity:1;fill-rule:evenodd;stroke:none"
         d="M 4325.08,942.73 H 2030.3 c -84.79,0 -154.15,-69.378 -154.15,-154.16 v -0.019 c 0,-84.789 69.36,-154.129 154.15,-154.129 h 2294.78 c 84.79,0 154.15,69.34 154.15,154.129 v 0.019 c 0,84.782 -69.36,154.16 -154.15,154.16" /><path
         id="path200"
         style="fill:#e9f1fa;fill-opacity:1;fill-rule:evenodd;stroke:none"
         d="M 10602.1,942.73 H 8307.34 c -84.78,0 -154.15,-69.378 -154.15,-154.16 v -0.019 c 0,-84.789 69.37,-154.129 154.15,-154.129 h 2294.76 c 84.8,0 154.2,69.34 154.2,154.129 v 0.019 c 0,84.782 -69.4,154.16 -154.2,154.16" /><path
         id="path202"
         style="fill:#346465;fill-opacity:1;fill-rule:nonzero;stroke:none"
         d="m 9621.08,1860.27 c -7.11,0 -13.61,4.75 -15.56,11.94 l -389.68,1454.33 c -2.3,8.6 2.8,17.43 11.39,19.73 8.6,2.32 17.42,-2.79 19.73,-11.39 l 389.69,-1454.33 c 2.3,-8.59 -2.8,-17.41 -11.4,-19.73 -1.39,-0.37 -2.8,-0.55 -4.17,-0.55" /><path
         id="path204"
         style="fill:#e8e7e6;fill-opacity:1;fill-rule:evenodd;stroke:none"
         d="m 9457.95,3422.3 c 22.86,19.94 29.16,53.9 13.42,81.16 -15.73,27.24 -48.29,38.75 -76.99,28.96 9.8,28.7 -1.7,61.25 -28.96,76.99 -27.25,15.74 -61.2,9.41 -81.16,-13.42 -5.87,29.73 -32.11,52.2 -63.58,52.2 -31.49,0 -57.73,-22.45 -63.58,-52.2 -19.96,22.83 -53.9,29.16 -81.17,13.41 -27.25,-15.73 -38.74,-48.29 -28.95,-76.98 -28.71,9.79 -61.26,-1.72 -76.99,-28.97 -15.75,-27.27 -9.43,-61.21 13.42,-81.17 -29.75,-5.85 -52.21,-32.09 -52.21,-63.58 0,-31.47 22.46,-57.71 52.21,-63.56 -22.85,-19.96 -29.17,-53.91 -13.42,-81.17 15.73,-27.26 48.29,-38.74 76.99,-28.96 -9.81,-28.7 1.7,-61.25 28.96,-76.99 27.27,-15.75 61.21,-9.43 81.17,13.43 5.85,-29.76 32.08,-52.22 63.58,-52.22 31.47,0 57.72,22.46 63.57,52.22 19.96,-22.86 53.91,-29.18 81.16,-13.43 27.26,15.74 38.75,48.3 28.96,76.99 28.71,-9.79 61.26,1.7 77,28.96 15.73,27.26 9.43,61.22 -13.43,81.17 29.76,5.85 52.21,32.09 52.21,63.57 0,31.48 -22.45,57.74 -52.21,63.59" /><path
         id="path206"
         style="fill:#c1ce19;fill-opacity:1;fill-rule:evenodd;stroke:none"
         d="m 9220.68,3465.39 c -58.91,0 -106.68,-47.76 -106.68,-106.68 0,-58.9 47.77,-106.68 106.68,-106.68 58.91,0 106.68,47.78 106.68,106.68 0,58.92 -47.77,106.68 -106.68,106.68" /><path
         id="path208"
         style="fill:#346465;fill-opacity:1;fill-rule:evenodd;stroke:none"
         d="m 9647.19,2953.09 c -45.23,25.09 -126.68,-35.36 -181.91,-135.01 -55.26,-99.64 -63.36,-200.74 -18.14,-225.8 45.25,-25.09 126.67,35.36 181.92,135.01 55.24,99.62 63.36,200.73 18.13,225.8" /><path
         id="path210"
         style="fill:#346465;fill-opacity:1;fill-rule:evenodd;stroke:none"
         d="m 9226.67,3003.56 c -104.98,44.24 -206.35,41.5 -226.46,-6.16 -20.09,-47.66 48.73,-122.17 153.71,-166.42 104.98,-44.27 206.36,-41.52 226.47,6.13 20.08,47.66 -48.72,122.18 -153.72,166.45" /><path
         id="path212"
         style="fill:#346465;fill-opacity:1;fill-rule:nonzero;stroke:none"
         d="m 9942.29,1959.56 c -1.38,0 -2.78,0.19 -4.17,0.57 -8.6,2.29 -13.7,11.13 -11.4,19.72 l 389.68,1454.33 c 2.3,8.59 11.1,13.71 19.7,11.39 8.6,-2.3 13.7,-11.14 11.4,-19.73 L 9957.84,1971.51 c -1.94,-7.2 -8.44,-11.95 -15.55,-11.95" /><path
         id="path214"
         style="fill:#e8e7e6;fill-opacity:1;fill-rule:evenodd;stroke:none"
         d="m 10580,3521.57 c 22.8,19.96 29.1,53.91 13.4,81.16 -15.8,27.28 -48.3,38.78 -77,28.98 9.8,28.69 -1.7,61.26 -29,76.98 -27.2,15.75 -61.2,9.45 -81.1,-13.42 -5.9,29.77 -32.1,52.21 -63.6,52.21 -31.5,0 -57.7,-22.46 -63.6,-52.21 -19.9,22.85 -53.9,29.17 -81.1,13.44 -27.3,-15.74 -38.8,-48.29 -29,-77 -28.7,9.78 -61.3,-1.7 -77,-28.96 -15.7,-27.25 -9.4,-61.2 13.4,-81.16 -29.7,-5.86 -52.2,-32.11 -52.2,-63.58 0,-31.5 22.5,-57.73 52.2,-63.57 -22.8,-19.96 -29.1,-53.9 -13.4,-81.18 15.7,-27.25 48.3,-38.76 77,-28.95 -9.8,-28.69 1.7,-61.25 28.9,-77 27.3,-15.73 61.3,-9.43 81.2,13.43 5.9,-29.76 32.1,-52.22 63.6,-52.22 31.5,0 57.7,22.46 63.6,52.22 19.9,-22.86 53.9,-29.16 81.1,-13.43 27.3,15.75 38.8,48.29 29,77 28.7,-9.79 61.2,1.7 77,28.95 15.7,27.27 9.4,61.21 -13.4,81.17 29.7,5.85 52.2,32.08 52.2,63.56 0,31.49 -22.5,57.73 -52.2,63.58" /><path
         id="path216"
         style="fill:#c1ce19;fill-opacity:1;fill-rule:evenodd;stroke:none"
         d="m 10342.7,3564.69 c -58.9,0 -106.7,-47.78 -106.7,-106.68 0,-58.91 47.8,-106.68 106.7,-106.68 58.9,0 106.7,47.77 106.7,106.68 0,58.9 -47.8,106.68 -106.7,106.68" /><path
         id="path218"
         style="fill:#346465;fill-opacity:1;fill-rule:evenodd;stroke:none"
         d="m 9916.18,3052.38 c -45.23,-25.07 -37.11,-126.16 18.13,-225.8 55.25,-99.65 136.69,-160.1 181.89,-135.01 45.3,25.08 37.1,126.17 -18.1,225.8 -55.2,99.65 -136.69,160.1 -181.92,135.01" /><path
         id="path220"
         style="fill:#346465;fill-opacity:1;fill-rule:evenodd;stroke:none"
         d="m 10336.7,3102.84 c -105,-44.26 -173.8,-118.77 -153.7,-166.41 20.1,-47.67 121.5,-50.41 226.4,-6.16 105,44.27 173.8,118.76 153.8,166.43 -20.1,47.66 -121.5,50.39 -226.5,6.14" /><path
         id="path222"
         style="fill:#346465;fill-opacity:1;fill-rule:nonzero;stroke:none"
         d="m 10223.6,1821.96 -2.4,0.34 c -5.1,1.36 -8.2,6.6 -6.8,11.7 l 231.2,862.81 c 1.4,5.09 6.6,8.13 11.7,6.75 5.1,-1.36 8.1,-6.61 6.8,-11.7 l -231.2,-862.81 c -1.2,-4.27 -5,-7.09 -9.3,-7.09" /><path
         id="path224"
         style="fill:#e8e7e6;fill-opacity:1;fill-rule:evenodd;stroke:none"
         d="m 10602,2748.65 c 13.5,11.85 17.3,31.99 7.9,48.16 -9.3,16.18 -28.6,23 -45.7,17.18 5.8,17.03 -1,36.35 -17.1,45.68 -16.2,9.34 -36.4,5.59 -48.2,-7.96 -3.5,17.66 -19,30.97 -37.7,30.97 -18.7,0 -34.3,-13.32 -37.7,-30.97 -11.9,13.54 -32,17.3 -48.2,7.97 -16.2,-9.34 -23,-28.65 -17.2,-45.69 -17,5.81 -36.3,-1 -45.6,-17.17 -9.4,-16.17 -5.6,-36.31 7.9,-48.16 -17.6,-3.47 -31,-19.04 -31,-37.71 0,-18.69 13.4,-34.25 31,-37.72 -13.5,-11.84 -17.3,-31.98 -7.9,-48.16 9.3,-16.17 28.6,-23 45.6,-17.18 -5.8,-17.02 1,-36.34 17.2,-45.68 16.2,-9.33 36.3,-5.59 48.2,7.98 3.4,-17.67 19,-30.99 37.7,-30.99 18.7,0 34.2,13.32 37.7,30.99 11.8,-13.57 32,-17.31 48.2,-7.98 16.1,9.34 23,28.65 17.1,45.68 17.1,-5.8 36.4,1.01 45.7,17.18 9.4,16.17 5.6,36.32 -7.9,48.15 17.6,3.48 30.9,19.04 30.9,37.71 0,18.69 -13.3,34.26 -30.9,37.72" /><path
         id="path226"
         style="fill:#c1ce19;fill-opacity:1;fill-rule:evenodd;stroke:none"
         d="m 10461.2,2774.23 c -35,0 -63.3,-28.34 -63.3,-63.28 0,-34.95 28.3,-63.29 63.3,-63.29 34.9,0 63.3,28.34 63.3,63.29 0,34.94 -28.4,63.28 -63.3,63.28" /><path
         id="path228"
         style="fill:#346465;fill-opacity:1;fill-rule:evenodd;stroke:none"
         d="m 10208.1,2470.3 c -26.8,-14.87 -22,-74.85 10.8,-133.96 32.8,-59.12 81.1,-94.98 107.9,-80.1 26.9,14.88 22.1,74.85 -10.7,133.97 -32.8,59.11 -81.1,94.98 -108,80.09" /><path
         id="path230"
         style="fill:#346465;fill-opacity:1;fill-rule:evenodd;stroke:none"
         d="m 10457.6,2500.23 c -62.3,-26.25 -103.1,-70.45 -91.2,-98.73 12,-28.28 72.1,-29.9 134.4,-3.65 62.3,26.27 103.1,70.46 91.2,98.74 -11.9,28.27 -72.1,29.89 -134.4,3.64" /><path
         id="path232"
         style="fill:#346465;fill-opacity:1;fill-rule:nonzero;stroke:none"
         d="m 9424.03,1786.5 -2.31,-0.96 c -5.08,-1.4 -10.35,1.58 -11.74,6.68 l -236.84,861.28 c -1.41,5.07 1.58,10.35 6.68,11.74 5.09,1.4 10.35,-1.6 11.75,-6.68 l 236.82,-861.27 c 1.19,-4.27 -0.72,-8.66 -4.36,-10.79" /><path
         id="path234"
         style="fill:#e8e7e6;fill-opacity:1;fill-rule:evenodd;stroke:none"
         d="m 9281.82,2777.29 c 5.7,17.07 -1.25,36.33 -17.48,45.56 -16.24,9.24 -36.35,5.37 -48.09,-8.26 -3.61,17.62 -19.25,30.85 -37.92,30.71 -18.69,-0.11 -34.16,-13.53 -37.52,-31.22 -11.93,13.49 -32.09,17.09 -48.21,7.65 -16.1,-9.44 -22.81,-28.81 -16.87,-45.78 -17.07,5.69 -36.35,-1.25 -45.58,-17.48 -9.23,-16.23 -5.34,-36.34 8.27,-48.11 -17.61,-3.6 -30.84,-19.24 -30.71,-37.91 0.12,-18.67 13.54,-34.15 31.22,-37.52 -13.48,-11.92 -17.1,-32.09 -7.66,-48.19 9.46,-16.13 28.81,-22.81 45.81,-16.88 -5.72,-17.08 1.24,-36.34 17.48,-45.58 16.23,-9.23 36.34,-5.35 48.08,8.27 3.61,-17.62 19.25,-30.83 37.93,-30.71 18.66,0.12 34.15,13.53 37.51,31.23 11.92,-13.49 32.1,-17.11 48.2,-7.67 16.12,9.44 22.81,28.81 16.88,45.8 17.07,-5.71 36.34,1.25 45.58,17.47 9.23,16.25 5.35,36.35 -8.28,48.11 17.62,3.6 30.84,19.24 30.72,37.91 -0.12,18.67 -13.54,34.17 -31.21,37.52 13.46,11.92 17.09,32.08 7.64,48.19 -9.45,16.12 -28.81,22.82 -45.79,16.89" /><path
         id="path236"
         style="fill:#c1ce19;fill-opacity:1;fill-rule:evenodd;stroke:none"
         d="m 9147.45,2728.17 c -30.16,-17.67 -40.28,-56.45 -22.61,-86.6 17.67,-30.15 56.45,-40.27 86.6,-22.59 30.16,17.66 40.27,56.45 22.61,86.6 -17.68,30.14 -56.46,40.26 -86.6,22.59" /><path
         id="path238"
         style="fill:#346465;fill-opacity:1;fill-rule:evenodd;stroke:none"
         d="m 9082.82,2338.01 c -15.62,-26.39 18.86,-75.7 77.03,-110.13 58.16,-34.43 117.98,-40.95 133.6,-14.53 15.63,26.41 -18.85,75.71 -77.01,110.14 -58.16,34.42 -117.99,40.93 -133.62,14.52" /><path
         id="path240"
         style="fill:#346465;fill-opacity:1;fill-rule:evenodd;stroke:none"
         d="m 9282.92,2489.99 c -40.45,-54.15 -53.33,-112.93 -28.75,-131.29 24.59,-18.37 77.3,10.65 117.76,64.78 40.45,54.16 53.33,112.93 28.75,131.31 -24.59,18.36 -77.3,-10.66 -117.76,-64.8" /><path
         id="path242"
         style="fill:#346465;fill-opacity:1;fill-rule:nonzero;stroke:none"
         d="m 9803.28,1591.88 c -8.9,0 -16.12,7.21 -16.12,16.1 v 1505.63 c 0,8.9 7.22,16.11 16.12,16.11 8.89,0 16.1,-7.21 16.1,-16.11 V 1607.98 c 0,-8.89 -7.21,-16.1 -16.1,-16.1" /><path
         id="path244"
         style="fill:#e8e7e6;fill-opacity:1;fill-rule:evenodd;stroke:none"
         d="m 10086,3218.34 c -8.1,30.42 -36.6,49.94 -66.9,47.9 16.9,25.2 14.2,59.63 -8,81.89 -22.27,22.26 -56.7,24.93 -81.9,8.03 2.05,30.26 -17.5,58.74 -47.89,66.88 -30.4,8.16 -61.56,-6.74 -74.92,-33.97 -13.35,27.23 -44.51,42.13 -74.92,33.98 -30.4,-8.15 -49.94,-36.63 -47.91,-66.89 -25.18,16.9 -59.61,14.23 -81.88,-8.03 -22.25,-22.26 -24.93,-56.67 -8.03,-81.88 -30.26,2.03 -58.73,-17.5 -66.88,-47.89 -8.15,-30.41 6.74,-61.57 33.98,-74.92 -27.23,-13.37 -42.13,-44.53 -33.99,-74.92 8.16,-30.42 36.63,-49.96 66.89,-47.91 -16.91,-25.19 -14.22,-59.6 8.03,-81.86 22.27,-22.27 56.7,-24.97 81.88,-8.06 -2.03,-30.25 17.51,-58.74 47.9,-66.89 30.4,-8.14 61.55,6.74 74.91,33.97 13.36,-27.22 44.52,-42.12 74.93,-33.97 30.42,8.15 49.95,36.62 47.9,66.89 25.2,-16.91 59.61,-14.21 81.9,8.04 22.2,22.26 24.9,56.67 8,81.88 30.3,-2.04 58.8,17.49 66.9,47.89 8.2,30.41 -6.7,61.57 -34,74.92 27.3,13.37 42.2,44.52 34,74.92" /><path
         id="path246"
         style="fill:#c1ce19;fill-opacity:1;fill-rule:evenodd;stroke:none"
         d="m 9778.78,3246.48 c -56.92,-15.26 -90.68,-73.75 -75.44,-130.66 15.25,-56.89 73.74,-90.68 130.66,-75.43 56.89,15.25 90.68,73.74 75.43,130.64 -15.25,56.92 -73.74,90.7 -130.65,75.45" /><path
         id="path248"
         style="fill:#346465;fill-opacity:1;fill-rule:evenodd;stroke:none"
         d="m 9499.4,2641.24 c -37.21,-35.93 -3.19,-131.48 75.94,-213.44 79.16,-81.93 173.47,-119.24 210.65,-83.32 37.22,35.93 3.2,131.49 -75.94,213.42 -79.15,81.95 -173.46,119.27 -210.65,83.34" /><path
         id="path250"
         style="fill:#346465;fill-opacity:1;fill-rule:evenodd;stroke:none"
         d="m 9892.51,2798.81 c -89.94,-69.92 -137.12,-159.71 -105.39,-200.55 31.75,-40.81 130.39,-17.23 220.38,52.69 89.9,69.93 137.1,159.7 105.3,200.53 -31.7,40.83 -130.34,17.24 -220.29,-52.67" /><path
         id="path252"
         style="fill:#d2d3d2;fill-opacity:1;fill-rule:nonzero;stroke:none"
         d="M 9110.22,2193.08 H 10459.6 L 10283.9,930.992 H 9271.6 L 9110.22,2193.08" /><path
         id="path254"
         style="fill:#e9eae9;fill-opacity:1;fill-rule:nonzero;stroke:none"
         d="m 9110.22,2193.08 v -290.85 h 1349.38 v 290.85 H 9110.22" /><path
         id="path256"
         style="fill:#2b2f36;fill-opacity:1;fill-rule:nonzero;stroke:none"
         d="m 4253.96,2040.82 v -378.05 h -1804.2 v 378.05 h 1804.2" /><path
         id="path258"
         style="fill:#5b8bc1;fill-opacity:1;fill-rule:nonzero;stroke:none"
         d="M 3712.01,1957.72 V 1736.64 H 2572.28 v 221.08 h 1139.73" /><path
         id="path260"
         style="fill:#5b8bc1;fill-opacity:1;fill-rule:nonzero;stroke:none"
         d="m 3875.65,1957.72 v -221.08 h 55.74 v 221.08 h -55.74" /><path
         id="path262"
         style="fill:#5b8bc1;fill-opacity:1;fill-rule:nonzero;stroke:none"
         d="m 3790.07,1957.72 v -221.08 h 55.73 v 221.08 h -55.73" /><path
         id="path264"
         style="fill:#2a7b74;fill-opacity:1;fill-rule:nonzero;stroke:none"
         d="M 2302.71,934.98 H 4377.9 v 377.988 H 2302.71 Z" /><path
         id="path266"
         style="fill:#254448;fill-opacity:1;fill-rule:nonzero;stroke:none"
         d="M 2395.68,990.723 H 4203.17 V 1257.25 H 2395.68 Z" /><path
         id="path268"
         style="fill:#254448;fill-opacity:1;fill-rule:nonzero;stroke:none"
         d="m 4256.34,990.723 h 65.8398 V 1257.25 H 4256.34 Z" /><path
         id="path270"
         style="fill:#d75050;fill-opacity:1;fill-rule:nonzero;stroke:none"
         d="M 3732.81,2418.78 V 2040.82 H 1657.58 v 377.96 h 2075.23" /><path
         id="path272"
         style="fill:#e2c97a;fill-opacity:1;fill-rule:nonzero;stroke:none"
         d="m 3677.04,2363.1 v -266.56 h -439.9 v 266.56 h 439.9" /><path
         id="path274"
         style="fill:#e2c97a;fill-opacity:1;fill-rule:nonzero;stroke:none"
         d="m 2935.69,2363.1 v -266.56 h -439.88 v 266.56 h 439.88" /><path
         id="path276"
         style="fill:#e2c97a;fill-opacity:1;fill-rule:nonzero;stroke:none"
         d="m 2158.09,2363.1 v -266.56 h -439.87 v 266.56 h 439.87" /><path
         id="path278"
         style="fill:#da2f59;fill-opacity:1;fill-rule:nonzero;stroke:none"
         d="M 4049.03,1690.9 V 1312.94 H 1973.82 v 377.96 h 2075.21" /><path
         id="path280"
         style="fill:#e2c97a;fill-opacity:1;fill-rule:nonzero;stroke:none"
         d="m 2287.6,1584.59 c 45.67,0 82.66,-36.97 82.66,-82.69 0,-45.65 -36.99,-82.66 -82.66,-82.66 -45.67,0 -82.68,37.01 -82.68,82.66 0,45.72 37.01,82.69 82.68,82.69" /><path
         id="path282"
         style="fill:#e2c97a;fill-opacity:1;fill-rule:nonzero;stroke:none"
         d="m 3748.53,1620.59 v -237.3 h -65.82 v 237.3 h 65.82" /><path
         id="path284"
         style="fill:#e2c97a;fill-opacity:1;fill-rule:nonzero;stroke:none"
         d="m 3866.69,1620.59 v -237.3 h -65.84 v 237.3 h 65.84" /><path
         id="path286"
         style="fill:#e2c97a;fill-opacity:1;fill-rule:nonzero;stroke:none"
         d="m 3984.35,1620.59 v -237.3 h -65.85 v 237.3 h 65.85" /><path
         id="path288"
         style="fill:#f4b20c;fill-opacity:1;fill-rule:nonzero;stroke:none"
         d="m 4086.81,7226.45 h 1520 v 200 h -1520 z m 1540,-20 h -1560 v 230 h 1560 v -230" /><path
         id="path290"
         style="fill:#f4b20c;fill-opacity:1;fill-rule:nonzero;stroke:none"
         d="m 4086.81,6566.45 h 1520 v 410 h -1520 z m 1540,-10 h -1560 v 440 h 1560 v -440" /></g></g></svg>